<mxfile host="app.diagrams.net" agent="Mozilla/5.0 (Windows NT 10.0; Win64; x64) AppleWebKit/537.36 (KHTML, like Gecko) Chrome/138.0.0.0 Safari/537.36" version="28.0.7">
  <diagram name="Page-1" id="_oAilhtV4cPBUMFtfc5y">
    <mxGraphModel dx="1478" dy="1663" grid="1" gridSize="10" guides="1" tooltips="1" connect="1" arrows="1" fold="1" page="1" pageScale="1" pageWidth="850" pageHeight="1100" math="0" shadow="0">
      <root>
        <mxCell id="0" />
        <mxCell id="1" parent="0" />
        <mxCell id="R9ZdVDWzcC7xUmS6zR7n-75" style="edgeStyle=orthogonalEdgeStyle;curved=1;rounded=0;orthogonalLoop=1;jettySize=auto;html=1;exitX=1;exitY=1;exitDx=0;exitDy=0;entryX=0.5;entryY=1;entryDx=0;entryDy=0;" edge="1" parent="1">
          <mxGeometry relative="1" as="geometry">
            <mxPoint x="1328.2553390593266" y="1684.3053390593266" as="sourcePoint" />
            <mxPoint x="1292.9" y="1698.9499999999998" as="targetPoint" />
            <Array as="points">
              <mxPoint x="1327.9" y="1728.9499999999998" />
              <mxPoint x="1292.9" y="1728.9499999999998" />
            </Array>
          </mxGeometry>
        </mxCell>
        <mxCell id="R9ZdVDWzcC7xUmS6zR7n-36" style="edgeStyle=orthogonalEdgeStyle;rounded=0;orthogonalLoop=1;jettySize=auto;html=1;" edge="1" parent="1" source="R9ZdVDWzcC7xUmS6zR7n-23" target="R9ZdVDWzcC7xUmS6zR7n-21">
          <mxGeometry relative="1" as="geometry" />
        </mxCell>
        <mxCell id="R9ZdVDWzcC7xUmS6zR7n-23" value="" style="shape=ext;double=1;rounded=0;whiteSpace=wrap;html=1;" vertex="1" parent="1">
          <mxGeometry x="351" y="1620" width="330" height="100" as="geometry" />
        </mxCell>
        <mxCell id="R9ZdVDWzcC7xUmS6zR7n-17" value="" style="shape=ext;double=1;rounded=0;whiteSpace=wrap;html=1;" vertex="1" parent="1">
          <mxGeometry x="140" y="1390" width="170" height="330" as="geometry" />
        </mxCell>
        <mxCell id="0gTN9KxVM-yiQhk3yRb8-19" value="" style="rounded=0;whiteSpace=wrap;html=1;" parent="1" vertex="1">
          <mxGeometry x="220" y="100" width="30" height="70" as="geometry" />
        </mxCell>
        <mxCell id="0gTN9KxVM-yiQhk3yRb8-20" value="" style="rounded=0;whiteSpace=wrap;html=1;" parent="1" vertex="1">
          <mxGeometry x="220" y="170" width="30" height="70" as="geometry" />
        </mxCell>
        <mxCell id="0gTN9KxVM-yiQhk3yRb8-21" value="" style="rounded=0;whiteSpace=wrap;html=1;" parent="1" vertex="1">
          <mxGeometry x="220" y="240" width="30" height="70" as="geometry" />
        </mxCell>
        <mxCell id="0gTN9KxVM-yiQhk3yRb8-2" value="&lt;b&gt;&lt;font style=&quot;font-size: 36px;&quot;&gt;+&lt;/font&gt;&lt;/b&gt;" style="shape=trapezoid;perimeter=trapezoidPerimeter;whiteSpace=wrap;html=1;fixedSize=1;rotation=90;" parent="1" vertex="1">
          <mxGeometry x="85" y="180" width="90" height="40" as="geometry" />
        </mxCell>
        <mxCell id="0gTN9KxVM-yiQhk3yRb8-3" value="&lt;span style=&quot;font-size: 18px;&quot;&gt;A&lt;/span&gt;" style="text;html=1;align=center;verticalAlign=middle;whiteSpace=wrap;rounded=0;" parent="1" vertex="1">
          <mxGeometry x="25" y="155" width="60" height="30" as="geometry" />
        </mxCell>
        <mxCell id="0gTN9KxVM-yiQhk3yRb8-4" value="&lt;span style=&quot;font-size: 18px;&quot;&gt;B&lt;/span&gt;" style="text;html=1;align=center;verticalAlign=middle;whiteSpace=wrap;rounded=0;" parent="1" vertex="1">
          <mxGeometry x="25" y="200" width="60" height="30" as="geometry" />
        </mxCell>
        <mxCell id="0gTN9KxVM-yiQhk3yRb8-5" style="edgeStyle=orthogonalEdgeStyle;rounded=0;orthogonalLoop=1;jettySize=auto;html=1;exitX=1;exitY=0.5;exitDx=0;exitDy=0;entryX=0.175;entryY=0.955;entryDx=0;entryDy=0;entryPerimeter=0;" parent="1" edge="1">
          <mxGeometry relative="1" as="geometry">
            <mxPoint x="84" y="170" as="sourcePoint" />
            <mxPoint x="110.80000000000001" y="170.75" as="targetPoint" />
          </mxGeometry>
        </mxCell>
        <mxCell id="0gTN9KxVM-yiQhk3yRb8-6" style="edgeStyle=orthogonalEdgeStyle;rounded=0;orthogonalLoop=1;jettySize=auto;html=1;exitX=0.939;exitY=0.522;exitDx=0;exitDy=0;entryX=0.677;entryY=1.066;entryDx=0;entryDy=0;entryPerimeter=0;exitPerimeter=0;" parent="1" source="0gTN9KxVM-yiQhk3yRb8-4" edge="1">
          <mxGeometry relative="1" as="geometry">
            <mxPoint x="88" y="215" as="sourcePoint" />
            <mxPoint x="110.35999999999996" y="215.93" as="targetPoint" />
          </mxGeometry>
        </mxCell>
        <mxCell id="0gTN9KxVM-yiQhk3yRb8-8" style="edgeStyle=orthogonalEdgeStyle;rounded=0;orthogonalLoop=1;jettySize=auto;html=1;entryX=0.25;entryY=0.5;entryDx=0;entryDy=0;entryPerimeter=0;" parent="1" source="0gTN9KxVM-yiQhk3yRb8-2" target="0gTN9KxVM-yiQhk3yRb8-15" edge="1">
          <mxGeometry relative="1" as="geometry">
            <mxPoint x="220.99" y="200.25" as="targetPoint" />
          </mxGeometry>
        </mxCell>
        <mxCell id="0gTN9KxVM-yiQhk3yRb8-25" style="edgeStyle=orthogonalEdgeStyle;rounded=0;orthogonalLoop=1;jettySize=auto;html=1;entryX=0.25;entryY=0.5;entryDx=0;entryDy=0;entryPerimeter=0;" parent="1" source="0gTN9KxVM-yiQhk3yRb8-9" target="0gTN9KxVM-yiQhk3yRb8-16" edge="1">
          <mxGeometry relative="1" as="geometry">
            <Array as="points">
              <mxPoint x="180" y="261" />
              <mxPoint x="180" y="205" />
            </Array>
          </mxGeometry>
        </mxCell>
        <mxCell id="0gTN9KxVM-yiQhk3yRb8-9" value="&lt;span style=&quot;font-size: 18px;&quot;&gt;C&lt;/span&gt;" style="text;html=1;align=center;verticalAlign=middle;whiteSpace=wrap;rounded=0;" parent="1" vertex="1">
          <mxGeometry x="25" y="246" width="60" height="30" as="geometry" />
        </mxCell>
        <mxCell id="0gTN9KxVM-yiQhk3yRb8-10" value="&lt;span style=&quot;font-size: 18px;&quot;&gt;D&lt;/span&gt;" style="text;html=1;align=center;verticalAlign=middle;whiteSpace=wrap;rounded=0;" parent="1" vertex="1">
          <mxGeometry x="25" y="273" width="60" height="30" as="geometry" />
        </mxCell>
        <mxCell id="0gTN9KxVM-yiQhk3yRb8-13" style="edgeStyle=orthogonalEdgeStyle;rounded=0;orthogonalLoop=1;jettySize=auto;html=1;entryX=-0.053;entryY=0.939;entryDx=0;entryDy=0;entryPerimeter=0;" parent="1" source="0gTN9KxVM-yiQhk3yRb8-10" edge="1">
          <mxGeometry relative="1" as="geometry">
            <mxPoint x="218.41000000000008" y="287.18999999999994" as="targetPoint" />
          </mxGeometry>
        </mxCell>
        <mxCell id="0gTN9KxVM-yiQhk3yRb8-14" value="&lt;font style=&quot;font-size: 12px;&quot;&gt;A+B=W&lt;/font&gt;" style="text;html=1;align=center;verticalAlign=middle;whiteSpace=wrap;rounded=0;" parent="1" vertex="1">
          <mxGeometry x="160" y="110" width="60" height="30" as="geometry" />
        </mxCell>
        <mxCell id="0gTN9KxVM-yiQhk3yRb8-34" style="edgeStyle=orthogonalEdgeStyle;rounded=0;orthogonalLoop=1;jettySize=auto;html=1;exitX=0.75;exitY=0;exitDx=0;exitDy=0;entryX=0.25;entryY=1;entryDx=0;entryDy=0;" parent="1" source="0gTN9KxVM-yiQhk3yRb8-15" target="0gTN9KxVM-yiQhk3yRb8-33" edge="1">
          <mxGeometry relative="1" as="geometry">
            <Array as="points">
              <mxPoint x="250" y="148" />
              <mxPoint x="290" y="148" />
            </Array>
          </mxGeometry>
        </mxCell>
        <mxCell id="0gTN9KxVM-yiQhk3yRb8-15" value="&lt;font style=&quot;font-size: 12px; color: rgb(204, 0, 0);&quot;&gt;W&lt;/font&gt;" style="text;html=1;align=center;verticalAlign=middle;whiteSpace=wrap;rounded=0;" parent="1" vertex="1">
          <mxGeometry x="205" y="125" width="60" height="30" as="geometry" />
        </mxCell>
        <mxCell id="0gTN9KxVM-yiQhk3yRb8-35" style="edgeStyle=orthogonalEdgeStyle;rounded=0;orthogonalLoop=1;jettySize=auto;html=1;exitX=0.75;exitY=0;exitDx=0;exitDy=0;entryX=0.75;entryY=1;entryDx=0;entryDy=0;" parent="1" source="0gTN9KxVM-yiQhk3yRb8-16" target="0gTN9KxVM-yiQhk3yRb8-33" edge="1">
          <mxGeometry relative="1" as="geometry">
            <Array as="points">
              <mxPoint x="250" y="193" />
              <mxPoint x="290" y="193" />
            </Array>
          </mxGeometry>
        </mxCell>
        <mxCell id="0gTN9KxVM-yiQhk3yRb8-16" value="&lt;font style=&quot;font-size: 12px; color: rgb(204, 0, 0);&quot;&gt;C&lt;/font&gt;" style="text;html=1;align=center;verticalAlign=middle;whiteSpace=wrap;rounded=0;" parent="1" vertex="1">
          <mxGeometry x="205" y="190" width="60" height="30" as="geometry" />
        </mxCell>
        <mxCell id="0gTN9KxVM-yiQhk3yRb8-17" value="&lt;font style=&quot;font-size: 12px; color: rgb(204, 0, 0);&quot;&gt;D&lt;/font&gt;" style="text;html=1;align=center;verticalAlign=middle;whiteSpace=wrap;rounded=0;" parent="1" vertex="1">
          <mxGeometry x="205" y="260" width="60" height="30" as="geometry" />
        </mxCell>
        <mxCell id="0gTN9KxVM-yiQhk3yRb8-27" value="" style="shape=doubleArrow;whiteSpace=wrap;html=1;fillColor=#d5e8d4;strokeColor=#82b366;" parent="1" vertex="1">
          <mxGeometry x="50" y="340" width="190" height="20" as="geometry" />
        </mxCell>
        <mxCell id="0gTN9KxVM-yiQhk3yRb8-28" value="&lt;span style=&quot;font-size: 18px;&quot;&gt;&lt;font style=&quot;color: rgb(0, 0, 102);&quot;&gt;STAGE 1&lt;/font&gt;&lt;/span&gt;" style="text;html=1;align=center;verticalAlign=middle;whiteSpace=wrap;rounded=0;" parent="1" vertex="1">
          <mxGeometry x="102.5" y="360" width="85" height="30" as="geometry" />
        </mxCell>
        <mxCell id="0gTN9KxVM-yiQhk3yRb8-29" value="&lt;span style=&quot;font-size: 18px;&quot;&gt;&lt;font style=&quot;color: rgb(0, 0, 102);&quot;&gt;S1&lt;/font&gt;&lt;/span&gt;" style="text;html=1;align=center;verticalAlign=middle;whiteSpace=wrap;rounded=0;" parent="1" vertex="1">
          <mxGeometry x="192.5" y="70" width="85" height="30" as="geometry" />
        </mxCell>
        <mxCell id="0gTN9KxVM-yiQhk3yRb8-30" value="Stage 1 Pipeline Register" style="text;html=1;align=center;verticalAlign=middle;whiteSpace=wrap;rounded=0;" parent="1" vertex="1">
          <mxGeometry x="190" y="10" width="87.5" height="50" as="geometry" />
        </mxCell>
        <mxCell id="0gTN9KxVM-yiQhk3yRb8-31" value="&lt;span style=&quot;font-size: 24px;&quot;&gt;&lt;b&gt;E =&amp;nbsp;(A+B) + (A+B-C) + (A+B-C+D) + (A+B-C+D)*2&lt;/b&gt;&lt;/span&gt;&lt;div&gt;&lt;span style=&quot;font-size: 24px;&quot;&gt;&lt;b&gt;&lt;i&gt;&lt;font style=&quot;color: rgb(255, 0, 128);&quot;&gt;OR&lt;/font&gt;&lt;/i&gt;&lt;/b&gt;&lt;/span&gt;&lt;/div&gt;&lt;div&gt;&lt;span style=&quot;font-size: 24px;&quot;&gt;&lt;b&gt;E&amp;nbsp; &amp;nbsp;= 5A + 5B - 4C + 3D&lt;/b&gt;&lt;/span&gt;&lt;/div&gt;" style="text;html=1;align=left;verticalAlign=middle;whiteSpace=wrap;rounded=0;" parent="1" vertex="1">
          <mxGeometry x="30" y="-88" width="970" height="90" as="geometry" />
        </mxCell>
        <mxCell id="0gTN9KxVM-yiQhk3yRb8-32" value="&lt;b&gt;&lt;font style=&quot;font-size: 36px;&quot;&gt;+&lt;/font&gt;&lt;/b&gt;" style="shape=trapezoid;perimeter=trapezoidPerimeter;whiteSpace=wrap;html=1;fixedSize=1;rotation=90;" parent="1" vertex="1">
          <mxGeometry x="391" y="120" width="90" height="40" as="geometry" />
        </mxCell>
        <mxCell id="0gTN9KxVM-yiQhk3yRb8-33" value="&lt;span style=&quot;font-size: 36px;&quot;&gt;&lt;b&gt;I&lt;/b&gt;&lt;/span&gt;" style="shape=trapezoid;perimeter=trapezoidPerimeter;whiteSpace=wrap;html=1;fixedSize=1;rotation=90;" parent="1" vertex="1">
          <mxGeometry x="277.5" y="150" width="90" height="40" as="geometry" />
        </mxCell>
        <mxCell id="0gTN9KxVM-yiQhk3yRb8-60" style="edgeStyle=orthogonalEdgeStyle;rounded=0;orthogonalLoop=1;jettySize=auto;html=1;exitX=0.5;exitY=1;exitDx=0;exitDy=0;entryX=0;entryY=0.5;entryDx=0;entryDy=0;" parent="1" source="0gTN9KxVM-yiQhk3yRb8-38" target="0gTN9KxVM-yiQhk3yRb8-47" edge="1">
          <mxGeometry relative="1" as="geometry" />
        </mxCell>
        <mxCell id="0gTN9KxVM-yiQhk3yRb8-38" value="&lt;font style=&quot;font-size: 12px;&quot;&gt;(A+B-C) = X&lt;/font&gt;" style="text;html=1;align=center;verticalAlign=middle;whiteSpace=wrap;rounded=0;" parent="1" vertex="1">
          <mxGeometry x="343" y="140" width="70" height="30" as="geometry" />
        </mxCell>
        <mxCell id="0gTN9KxVM-yiQhk3yRb8-42" value="" style="endArrow=classic;html=1;rounded=0;entryX=0.19;entryY=0.968;entryDx=0;entryDy=0;entryPerimeter=0;" parent="1" edge="1">
          <mxGeometry width="50" height="50" relative="1" as="geometry">
            <mxPoint x="278" y="148" as="sourcePoint" />
            <mxPoint x="416.28" y="120.10000000000014" as="targetPoint" />
            <Array as="points">
              <mxPoint x="278" y="118" />
            </Array>
          </mxGeometry>
        </mxCell>
        <mxCell id="0gTN9KxVM-yiQhk3yRb8-43" value="&lt;font style=&quot;font-size: 12px;&quot;&gt;(A+B)&lt;/font&gt;" style="text;html=1;align=center;verticalAlign=middle;whiteSpace=wrap;rounded=0;" parent="1" vertex="1">
          <mxGeometry x="340" y="95" width="60" height="30" as="geometry" />
        </mxCell>
        <mxCell id="0gTN9KxVM-yiQhk3yRb8-44" style="edgeStyle=orthogonalEdgeStyle;rounded=0;orthogonalLoop=1;jettySize=auto;html=1;entryX=0.827;entryY=0.974;entryDx=0;entryDy=0;entryPerimeter=0;" parent="1" source="0gTN9KxVM-yiQhk3yRb8-33" target="0gTN9KxVM-yiQhk3yRb8-32" edge="1">
          <mxGeometry relative="1" as="geometry" />
        </mxCell>
        <mxCell id="0gTN9KxVM-yiQhk3yRb8-46" value="" style="rounded=0;whiteSpace=wrap;html=1;" parent="1" vertex="1">
          <mxGeometry x="490" y="95" width="30" height="70" as="geometry" />
        </mxCell>
        <mxCell id="0gTN9KxVM-yiQhk3yRb8-47" value="" style="rounded=0;whiteSpace=wrap;html=1;" parent="1" vertex="1">
          <mxGeometry x="490" y="165" width="30" height="70" as="geometry" />
        </mxCell>
        <mxCell id="0gTN9KxVM-yiQhk3yRb8-48" value="" style="rounded=0;whiteSpace=wrap;html=1;" parent="1" vertex="1">
          <mxGeometry x="490" y="235" width="30" height="70" as="geometry" />
        </mxCell>
        <mxCell id="0gTN9KxVM-yiQhk3yRb8-49" style="edgeStyle=orthogonalEdgeStyle;rounded=0;orthogonalLoop=1;jettySize=auto;html=1;" parent="1" source="0gTN9KxVM-yiQhk3yRb8-32" edge="1">
          <mxGeometry relative="1" as="geometry">
            <mxPoint x="490" y="140" as="targetPoint" />
          </mxGeometry>
        </mxCell>
        <mxCell id="0gTN9KxVM-yiQhk3yRb8-50" style="edgeStyle=orthogonalEdgeStyle;rounded=0;orthogonalLoop=1;jettySize=auto;html=1;entryX=-0.01;entryY=0.565;entryDx=0;entryDy=0;entryPerimeter=0;exitX=0.75;exitY=0.485;exitDx=0;exitDy=0;exitPerimeter=0;" parent="1" source="0gTN9KxVM-yiQhk3yRb8-17" target="0gTN9KxVM-yiQhk3yRb8-48" edge="1">
          <mxGeometry relative="1" as="geometry" />
        </mxCell>
        <mxCell id="0gTN9KxVM-yiQhk3yRb8-61" value="&lt;font color=&quot;#cc0000&quot;&gt;Y&lt;/font&gt;" style="text;html=1;align=center;verticalAlign=middle;whiteSpace=wrap;rounded=0;" parent="1" vertex="1">
          <mxGeometry x="475" y="115" width="60" height="30" as="geometry" />
        </mxCell>
        <mxCell id="0gTN9KxVM-yiQhk3yRb8-62" value="&lt;font style=&quot;font-size: 12px;&quot;&gt;Y&lt;/font&gt;" style="text;html=1;align=center;verticalAlign=middle;whiteSpace=wrap;rounded=0;" parent="1" vertex="1">
          <mxGeometry x="440" y="115" width="60" height="30" as="geometry" />
        </mxCell>
        <mxCell id="0gTN9KxVM-yiQhk3yRb8-63" value="&lt;font color=&quot;#cc0000&quot;&gt;X&lt;/font&gt;" style="text;html=1;align=center;verticalAlign=middle;whiteSpace=wrap;rounded=0;" parent="1" vertex="1">
          <mxGeometry x="475" y="185" width="60" height="30" as="geometry" />
        </mxCell>
        <mxCell id="0gTN9KxVM-yiQhk3yRb8-64" value="&lt;font color=&quot;#cc0000&quot;&gt;D&lt;/font&gt;" style="text;html=1;align=center;verticalAlign=middle;whiteSpace=wrap;rounded=0;" parent="1" vertex="1">
          <mxGeometry x="475" y="255" width="60" height="30" as="geometry" />
        </mxCell>
        <mxCell id="0gTN9KxVM-yiQhk3yRb8-71" style="edgeStyle=orthogonalEdgeStyle;rounded=0;orthogonalLoop=1;jettySize=auto;html=1;entryX=-0.033;entryY=0.338;entryDx=0;entryDy=0;entryPerimeter=0;" parent="1" source="0gTN9KxVM-yiQhk3yRb8-66" target="0gTN9KxVM-yiQhk3yRb8-91" edge="1">
          <mxGeometry relative="1" as="geometry">
            <mxPoint x="710" y="212" as="targetPoint" />
          </mxGeometry>
        </mxCell>
        <mxCell id="0gTN9KxVM-yiQhk3yRb8-66" value="&lt;b&gt;&lt;font style=&quot;font-size: 36px;&quot;&gt;+&lt;/font&gt;&lt;/b&gt;" style="shape=trapezoid;perimeter=trapezoidPerimeter;whiteSpace=wrap;html=1;fixedSize=1;rotation=90;" parent="1" vertex="1">
          <mxGeometry x="550" y="192" width="90" height="40" as="geometry" />
        </mxCell>
        <mxCell id="0gTN9KxVM-yiQhk3yRb8-67" style="edgeStyle=orthogonalEdgeStyle;rounded=0;orthogonalLoop=1;jettySize=auto;html=1;entryX=0.365;entryY=1.027;entryDx=0;entryDy=0;entryPerimeter=0;" parent="1" source="0gTN9KxVM-yiQhk3yRb8-47" target="0gTN9KxVM-yiQhk3yRb8-66" edge="1">
          <mxGeometry relative="1" as="geometry">
            <mxPoint x="570" y="200" as="targetPoint" />
          </mxGeometry>
        </mxCell>
        <mxCell id="0gTN9KxVM-yiQhk3yRb8-68" style="edgeStyle=orthogonalEdgeStyle;rounded=0;orthogonalLoop=1;jettySize=auto;html=1;entryX=0.575;entryY=1.027;entryDx=0;entryDy=0;entryPerimeter=0;" parent="1" source="0gTN9KxVM-yiQhk3yRb8-48" target="0gTN9KxVM-yiQhk3yRb8-66" edge="1">
          <mxGeometry relative="1" as="geometry" />
        </mxCell>
        <mxCell id="0gTN9KxVM-yiQhk3yRb8-73" value="Z = (A+B) + (A+B-C) + (A+B-C+D)" style="text;html=1;align=center;verticalAlign=middle;whiteSpace=wrap;rounded=0;" parent="1" vertex="1">
          <mxGeometry x="680" y="100" width="90" height="30" as="geometry" />
        </mxCell>
        <mxCell id="0gTN9KxVM-yiQhk3yRb8-100" style="edgeStyle=orthogonalEdgeStyle;rounded=0;orthogonalLoop=1;jettySize=auto;html=1;entryX=0.75;entryY=1;entryDx=0;entryDy=0;" parent="1" source="0gTN9KxVM-yiQhk3yRb8-74" target="0gTN9KxVM-yiQhk3yRb8-98" edge="1">
          <mxGeometry relative="1" as="geometry">
            <Array as="points">
              <mxPoint x="890" y="228" />
              <mxPoint x="890" y="203" />
            </Array>
          </mxGeometry>
        </mxCell>
        <mxCell id="0gTN9KxVM-yiQhk3yRb8-74" value="&lt;b&gt;&lt;font style=&quot;font-size: 21px;&quot;&gt;&amp;lt;&amp;lt;&lt;/font&gt;&lt;/b&gt;" style="whiteSpace=wrap;html=1;aspect=fixed;" parent="1" vertex="1">
          <mxGeometry x="843" y="210.5" width="35" height="35" as="geometry" />
        </mxCell>
        <mxCell id="0gTN9KxVM-yiQhk3yRb8-82" style="edgeStyle=orthogonalEdgeStyle;rounded=0;orthogonalLoop=1;jettySize=auto;html=1;entryX=0;entryY=0.5;entryDx=0;entryDy=0;" parent="1" target="0gTN9KxVM-yiQhk3yRb8-117" edge="1">
          <mxGeometry relative="1" as="geometry">
            <mxPoint x="80" y="558" as="sourcePoint" />
            <mxPoint x="99" y="562.4883720930231" as="targetPoint" />
          </mxGeometry>
        </mxCell>
        <mxCell id="0gTN9KxVM-yiQhk3yRb8-116" style="edgeStyle=orthogonalEdgeStyle;rounded=0;orthogonalLoop=1;jettySize=auto;html=1;entryX=0.25;entryY=1;entryDx=0;entryDy=0;" parent="1" target="0gTN9KxVM-yiQhk3yRb8-83" edge="1">
          <mxGeometry relative="1" as="geometry">
            <mxPoint x="80" y="558" as="sourcePoint" />
            <Array as="points">
              <mxPoint x="110" y="558" />
              <mxPoint x="110" y="516" />
            </Array>
          </mxGeometry>
        </mxCell>
        <mxCell id="0gTN9KxVM-yiQhk3yRb8-81" value="&lt;font style=&quot;font-size: 25px;&quot;&gt;A&lt;/font&gt;" style="text;html=1;align=center;verticalAlign=middle;whiteSpace=wrap;rounded=0;" parent="1" vertex="1">
          <mxGeometry x="42" y="542" width="37" height="30" as="geometry" />
        </mxCell>
        <mxCell id="0gTN9KxVM-yiQhk3yRb8-83" value="&lt;b&gt;&lt;font style=&quot;font-size: 36px;&quot;&gt;+&lt;/font&gt;&lt;/b&gt;" style="shape=trapezoid;perimeter=trapezoidPerimeter;whiteSpace=wrap;html=1;fixedSize=1;rotation=90;" parent="1" vertex="1">
          <mxGeometry x="208" y="519" width="90" height="40" as="geometry" />
        </mxCell>
        <mxCell id="0gTN9KxVM-yiQhk3yRb8-85" value="&lt;b&gt;&lt;font style=&quot;font-size: 36px;&quot;&gt;+&lt;/font&gt;&lt;/b&gt;" style="shape=trapezoid;perimeter=trapezoidPerimeter;whiteSpace=wrap;html=1;fixedSize=1;rotation=90;" parent="1" vertex="1">
          <mxGeometry x="620" y="121" width="90" height="40" as="geometry" />
        </mxCell>
        <mxCell id="0gTN9KxVM-yiQhk3yRb8-87" style="edgeStyle=orthogonalEdgeStyle;rounded=0;orthogonalLoop=1;jettySize=auto;html=1;exitX=0.75;exitY=0.5;exitDx=0;exitDy=0;exitPerimeter=0;entryX=0.383;entryY=1.014;entryDx=0;entryDy=0;entryPerimeter=0;" parent="1" source="0gTN9KxVM-yiQhk3yRb8-61" target="0gTN9KxVM-yiQhk3yRb8-85" edge="1">
          <mxGeometry relative="1" as="geometry">
            <mxPoint x="640" y="120" as="targetPoint" />
          </mxGeometry>
        </mxCell>
        <mxCell id="0gTN9KxVM-yiQhk3yRb8-88" value="" style="endArrow=classic;html=1;rounded=0;entryX=0.75;entryY=1;entryDx=0;entryDy=0;" parent="1" edge="1">
          <mxGeometry width="50" height="50" relative="1" as="geometry">
            <mxPoint x="630" y="212" as="sourcePoint" />
            <mxPoint x="645" y="151.5" as="targetPoint" />
            <Array as="points">
              <mxPoint x="630" y="152" />
            </Array>
          </mxGeometry>
        </mxCell>
        <mxCell id="0gTN9KxVM-yiQhk3yRb8-89" value="" style="rounded=0;whiteSpace=wrap;html=1;" parent="1" vertex="1">
          <mxGeometry x="780" y="80" width="30" height="99" as="geometry" />
        </mxCell>
        <mxCell id="0gTN9KxVM-yiQhk3yRb8-96" style="edgeStyle=orthogonalEdgeStyle;rounded=0;orthogonalLoop=1;jettySize=auto;html=1;entryX=0;entryY=0.5;entryDx=0;entryDy=0;" parent="1" source="0gTN9KxVM-yiQhk3yRb8-91" target="0gTN9KxVM-yiQhk3yRb8-74" edge="1">
          <mxGeometry relative="1" as="geometry" />
        </mxCell>
        <mxCell id="0gTN9KxVM-yiQhk3yRb8-91" value="" style="rounded=0;whiteSpace=wrap;html=1;" parent="1" vertex="1">
          <mxGeometry x="780" y="179" width="30" height="99" as="geometry" />
        </mxCell>
        <mxCell id="0gTN9KxVM-yiQhk3yRb8-92" style="edgeStyle=orthogonalEdgeStyle;rounded=0;orthogonalLoop=1;jettySize=auto;html=1;entryX=0.021;entryY=0.612;entryDx=0;entryDy=0;entryPerimeter=0;" parent="1" source="0gTN9KxVM-yiQhk3yRb8-85" target="0gTN9KxVM-yiQhk3yRb8-89" edge="1">
          <mxGeometry relative="1" as="geometry" />
        </mxCell>
        <mxCell id="0gTN9KxVM-yiQhk3yRb8-93" value="Z&#39; = (A+B-C+D)" style="text;html=1;align=center;verticalAlign=middle;whiteSpace=wrap;rounded=0;" parent="1" vertex="1">
          <mxGeometry x="680" y="185" width="90" height="30" as="geometry" />
        </mxCell>
        <mxCell id="0gTN9KxVM-yiQhk3yRb8-94" value="&lt;font color=&quot;#cc0000&quot;&gt;Z&lt;/font&gt;" style="text;html=1;align=center;verticalAlign=middle;whiteSpace=wrap;rounded=0;" parent="1" vertex="1">
          <mxGeometry x="765" y="115" width="60" height="30" as="geometry" />
        </mxCell>
        <mxCell id="0gTN9KxVM-yiQhk3yRb8-95" value="&lt;font color=&quot;#cc0000&quot;&gt;Z&#39;&lt;/font&gt;" style="text;html=1;align=center;verticalAlign=middle;whiteSpace=wrap;rounded=0;" parent="1" vertex="1">
          <mxGeometry x="765" y="213" width="60" height="30" as="geometry" />
        </mxCell>
        <mxCell id="0gTN9KxVM-yiQhk3yRb8-101" style="edgeStyle=orthogonalEdgeStyle;rounded=0;orthogonalLoop=1;jettySize=auto;html=1;" parent="1" source="0gTN9KxVM-yiQhk3yRb8-98" edge="1">
          <mxGeometry relative="1" as="geometry">
            <mxPoint x="1010" y="180" as="targetPoint" />
          </mxGeometry>
        </mxCell>
        <mxCell id="0gTN9KxVM-yiQhk3yRb8-98" value="&lt;b&gt;&lt;font style=&quot;font-size: 36px;&quot;&gt;+&lt;/font&gt;&lt;/b&gt;" style="shape=trapezoid;perimeter=trapezoidPerimeter;whiteSpace=wrap;html=1;fixedSize=1;rotation=90;" parent="1" vertex="1">
          <mxGeometry x="890" y="160" width="90" height="40" as="geometry" />
        </mxCell>
        <mxCell id="0gTN9KxVM-yiQhk3yRb8-99" style="edgeStyle=orthogonalEdgeStyle;rounded=0;orthogonalLoop=1;jettySize=auto;html=1;entryX=0.402;entryY=0.981;entryDx=0;entryDy=0;entryPerimeter=0;exitX=0.75;exitY=0.5;exitDx=0;exitDy=0;exitPerimeter=0;" parent="1" source="0gTN9KxVM-yiQhk3yRb8-94" target="0gTN9KxVM-yiQhk3yRb8-98" edge="1">
          <mxGeometry relative="1" as="geometry">
            <Array as="points">
              <mxPoint x="890" y="130" />
              <mxPoint x="890" y="171" />
            </Array>
          </mxGeometry>
        </mxCell>
        <mxCell id="0gTN9KxVM-yiQhk3yRb8-102" value="E" style="text;html=1;align=center;verticalAlign=middle;whiteSpace=wrap;rounded=0;" parent="1" vertex="1">
          <mxGeometry x="940" y="155" width="90" height="30" as="geometry" />
        </mxCell>
        <mxCell id="0gTN9KxVM-yiQhk3yRb8-103" value="&lt;span style=&quot;font-size: 18px;&quot;&gt;&lt;font style=&quot;color: rgb(0, 0, 102);&quot;&gt;S2&lt;/font&gt;&lt;/span&gt;" style="text;html=1;align=center;verticalAlign=middle;whiteSpace=wrap;rounded=0;" parent="1" vertex="1">
          <mxGeometry x="460" y="65" width="85" height="30" as="geometry" />
        </mxCell>
        <mxCell id="0gTN9KxVM-yiQhk3yRb8-104" value="&lt;span style=&quot;font-size: 18px;&quot;&gt;&lt;font style=&quot;color: rgb(0, 0, 102);&quot;&gt;S3&lt;/font&gt;&lt;/span&gt;" style="text;html=1;align=center;verticalAlign=middle;whiteSpace=wrap;rounded=0;" parent="1" vertex="1">
          <mxGeometry x="752.5" y="50" width="85" height="30" as="geometry" />
        </mxCell>
        <mxCell id="0gTN9KxVM-yiQhk3yRb8-105" value="Stage 2 Pipeline Register" style="text;html=1;align=center;verticalAlign=middle;whiteSpace=wrap;rounded=0;" parent="1" vertex="1">
          <mxGeometry x="457.5" y="10" width="87.5" height="50" as="geometry" />
        </mxCell>
        <mxCell id="0gTN9KxVM-yiQhk3yRb8-106" value="Stage 3 Pipeline Register" style="text;html=1;align=center;verticalAlign=middle;whiteSpace=wrap;rounded=0;" parent="1" vertex="1">
          <mxGeometry x="750" width="87.5" height="50" as="geometry" />
        </mxCell>
        <mxCell id="0gTN9KxVM-yiQhk3yRb8-107" value="" style="shape=doubleArrow;whiteSpace=wrap;html=1;fillColor=#d5e8d4;strokeColor=#82b366;" parent="1" vertex="1">
          <mxGeometry x="250" y="340" width="260" height="20" as="geometry" />
        </mxCell>
        <mxCell id="0gTN9KxVM-yiQhk3yRb8-108" value="&lt;span style=&quot;font-size: 18px;&quot;&gt;&lt;font style=&quot;color: rgb(0, 0, 102);&quot;&gt;STAGE 2&lt;/font&gt;&lt;/span&gt;" style="text;html=1;align=center;verticalAlign=middle;whiteSpace=wrap;rounded=0;" parent="1" vertex="1">
          <mxGeometry x="335.5" y="360" width="85" height="30" as="geometry" />
        </mxCell>
        <mxCell id="0gTN9KxVM-yiQhk3yRb8-109" value="" style="shape=doubleArrow;whiteSpace=wrap;html=1;fillColor=#d5e8d4;strokeColor=#82b366;" parent="1" vertex="1">
          <mxGeometry x="516" y="340" width="284" height="20" as="geometry" />
        </mxCell>
        <mxCell id="0gTN9KxVM-yiQhk3yRb8-110" value="&lt;span style=&quot;font-size: 18px;&quot;&gt;&lt;font style=&quot;color: rgb(0, 0, 102);&quot;&gt;STAGE 3&lt;/font&gt;&lt;/span&gt;" style="text;html=1;align=center;verticalAlign=middle;whiteSpace=wrap;rounded=0;" parent="1" vertex="1">
          <mxGeometry x="608.5" y="360" width="85" height="30" as="geometry" />
        </mxCell>
        <mxCell id="0gTN9KxVM-yiQhk3yRb8-111" value="" style="shape=doubleArrow;whiteSpace=wrap;html=1;fillColor=#d5e8d4;strokeColor=#82b366;" parent="1" vertex="1">
          <mxGeometry x="805" y="340" width="190" height="20" as="geometry" />
        </mxCell>
        <mxCell id="0gTN9KxVM-yiQhk3yRb8-112" value="&lt;span style=&quot;font-size: 18px;&quot;&gt;&lt;font style=&quot;color: rgb(0, 0, 102);&quot;&gt;STAGE 4&lt;/font&gt;&lt;/span&gt;" style="text;html=1;align=center;verticalAlign=middle;whiteSpace=wrap;rounded=0;" parent="1" vertex="1">
          <mxGeometry x="857.5" y="360" width="85" height="30" as="geometry" />
        </mxCell>
        <mxCell id="0gTN9KxVM-yiQhk3yRb8-117" value="&lt;b&gt;&lt;font style=&quot;font-size: 20px;&quot;&gt;&amp;lt;&amp;lt; by 2&lt;/font&gt;&lt;/b&gt;" style="rounded=0;whiteSpace=wrap;html=1;" parent="1" vertex="1">
          <mxGeometry x="129.5" y="539" width="77.5" height="38" as="geometry" />
        </mxCell>
        <mxCell id="0gTN9KxVM-yiQhk3yRb8-118" style="edgeStyle=orthogonalEdgeStyle;rounded=0;orthogonalLoop=1;jettySize=auto;html=1;entryX=0.716;entryY=0.962;entryDx=0;entryDy=0;entryPerimeter=0;" parent="1" source="0gTN9KxVM-yiQhk3yRb8-117" target="0gTN9KxVM-yiQhk3yRb8-83" edge="1">
          <mxGeometry relative="1" as="geometry" />
        </mxCell>
        <mxCell id="0gTN9KxVM-yiQhk3yRb8-119" style="edgeStyle=orthogonalEdgeStyle;rounded=0;orthogonalLoop=1;jettySize=auto;html=1;entryX=0.125;entryY=0.184;entryDx=0;entryDy=0;entryPerimeter=0;" parent="1" source="0gTN9KxVM-yiQhk3yRb8-83" edge="1">
          <mxGeometry relative="1" as="geometry">
            <mxPoint x="324.875" y="539.2399999999998" as="targetPoint" />
          </mxGeometry>
        </mxCell>
        <mxCell id="0gTN9KxVM-yiQhk3yRb8-120" value="" style="rounded=0;whiteSpace=wrap;html=1;" parent="1" vertex="1">
          <mxGeometry x="325.5" y="503" width="39" height="70" as="geometry" />
        </mxCell>
        <mxCell id="0gTN9KxVM-yiQhk3yRb8-142" style="edgeStyle=orthogonalEdgeStyle;rounded=0;orthogonalLoop=1;jettySize=auto;html=1;entryX=0.25;entryY=1;entryDx=0;entryDy=0;" parent="1" source="0gTN9KxVM-yiQhk3yRb8-121" target="0gTN9KxVM-yiQhk3yRb8-141" edge="1">
          <mxGeometry relative="1" as="geometry" />
        </mxCell>
        <mxCell id="0gTN9KxVM-yiQhk3yRb8-121" value="&lt;font style=&quot;font-size: 18px; color: rgb(204, 0, 0);&quot;&gt;5A&lt;/font&gt;" style="text;html=1;align=center;verticalAlign=middle;whiteSpace=wrap;rounded=0;" parent="1" vertex="1">
          <mxGeometry x="326" y="523" width="37" height="30" as="geometry" />
        </mxCell>
        <mxCell id="0gTN9KxVM-yiQhk3yRb8-146" style="edgeStyle=orthogonalEdgeStyle;rounded=0;orthogonalLoop=1;jettySize=auto;html=1;entryX=0;entryY=0.5;entryDx=0;entryDy=0;" parent="1" target="0gTN9KxVM-yiQhk3yRb8-125" edge="1">
          <mxGeometry relative="1" as="geometry">
            <mxPoint x="320" y="608" as="targetPoint" />
            <mxPoint x="80" y="608" as="sourcePoint" />
          </mxGeometry>
        </mxCell>
        <mxCell id="0gTN9KxVM-yiQhk3yRb8-122" value="&lt;font style=&quot;font-size: 25px;&quot;&gt;B&lt;/font&gt;" style="text;html=1;align=center;verticalAlign=middle;whiteSpace=wrap;rounded=0;" parent="1" vertex="1">
          <mxGeometry x="44" y="592" width="37" height="30" as="geometry" />
        </mxCell>
        <mxCell id="0gTN9KxVM-yiQhk3yRb8-125" value="" style="rounded=0;whiteSpace=wrap;html=1;" parent="1" vertex="1">
          <mxGeometry x="325.5" y="573" width="39" height="70" as="geometry" />
        </mxCell>
        <mxCell id="0gTN9KxVM-yiQhk3yRb8-126" value="&lt;font style=&quot;font-size: 18px; color: rgb(204, 0, 0);&quot;&gt;B&lt;/font&gt;" style="text;html=1;align=center;verticalAlign=middle;whiteSpace=wrap;rounded=0;" parent="1" vertex="1">
          <mxGeometry x="333" y="594" width="24" height="30" as="geometry" />
        </mxCell>
        <mxCell id="0gTN9KxVM-yiQhk3yRb8-127" value="" style="rounded=0;whiteSpace=wrap;html=1;" parent="1" vertex="1">
          <mxGeometry x="325.5" y="643" width="39" height="70" as="geometry" />
        </mxCell>
        <mxCell id="0gTN9KxVM-yiQhk3yRb8-158" style="edgeStyle=orthogonalEdgeStyle;rounded=0;orthogonalLoop=1;jettySize=auto;html=1;entryX=0;entryY=0.5;entryDx=0;entryDy=0;" parent="1" source="0gTN9KxVM-yiQhk3yRb8-128" target="0gTN9KxVM-yiQhk3yRb8-154" edge="1">
          <mxGeometry relative="1" as="geometry">
            <Array as="points">
              <mxPoint x="520" y="748" />
              <mxPoint x="520" y="718" />
            </Array>
          </mxGeometry>
        </mxCell>
        <mxCell id="0gTN9KxVM-yiQhk3yRb8-128" value="" style="rounded=0;whiteSpace=wrap;html=1;" parent="1" vertex="1">
          <mxGeometry x="325.5" y="713" width="39" height="70" as="geometry" />
        </mxCell>
        <mxCell id="0gTN9KxVM-yiQhk3yRb8-135" style="edgeStyle=orthogonalEdgeStyle;rounded=0;orthogonalLoop=1;jettySize=auto;html=1;entryX=0;entryY=0.5;entryDx=0;entryDy=0;" parent="1" target="0gTN9KxVM-yiQhk3yRb8-138" edge="1">
          <mxGeometry relative="1" as="geometry">
            <mxPoint x="364" y="614.5" as="sourcePoint" />
            <mxPoint x="418" y="618.9883720930231" as="targetPoint" />
          </mxGeometry>
        </mxCell>
        <mxCell id="0gTN9KxVM-yiQhk3yRb8-136" style="edgeStyle=orthogonalEdgeStyle;rounded=0;orthogonalLoop=1;jettySize=auto;html=1;entryX=0.25;entryY=1;entryDx=0;entryDy=0;" parent="1" target="0gTN9KxVM-yiQhk3yRb8-137" edge="1">
          <mxGeometry relative="1" as="geometry">
            <mxPoint x="364" y="614.5" as="sourcePoint" />
            <Array as="points">
              <mxPoint x="379" y="614.5" />
              <mxPoint x="379" y="573.5" />
            </Array>
          </mxGeometry>
        </mxCell>
        <mxCell id="0gTN9KxVM-yiQhk3yRb8-137" value="&lt;b&gt;&lt;font style=&quot;font-size: 36px;&quot;&gt;+&lt;/font&gt;&lt;/b&gt;" style="shape=trapezoid;perimeter=trapezoidPerimeter;whiteSpace=wrap;html=1;fixedSize=1;rotation=90;" parent="1" vertex="1">
          <mxGeometry x="475" y="575.5" width="90" height="40" as="geometry" />
        </mxCell>
        <mxCell id="0gTN9KxVM-yiQhk3yRb8-138" value="&lt;b&gt;&lt;font style=&quot;font-size: 20px;&quot;&gt;&amp;lt;&amp;lt; by 2&lt;/font&gt;&lt;/b&gt;" style="rounded=0;whiteSpace=wrap;html=1;" parent="1" vertex="1">
          <mxGeometry x="398.5" y="595.5" width="77.5" height="38" as="geometry" />
        </mxCell>
        <mxCell id="0gTN9KxVM-yiQhk3yRb8-139" style="edgeStyle=orthogonalEdgeStyle;rounded=0;orthogonalLoop=1;jettySize=auto;html=1;entryX=0.716;entryY=0.962;entryDx=0;entryDy=0;entryPerimeter=0;" parent="1" source="0gTN9KxVM-yiQhk3yRb8-138" target="0gTN9KxVM-yiQhk3yRb8-137" edge="1">
          <mxGeometry relative="1" as="geometry" />
        </mxCell>
        <mxCell id="0gTN9KxVM-yiQhk3yRb8-140" style="edgeStyle=orthogonalEdgeStyle;rounded=0;orthogonalLoop=1;jettySize=auto;html=1;entryX=0.678;entryY=0.95;entryDx=0;entryDy=0;entryPerimeter=0;" parent="1" source="0gTN9KxVM-yiQhk3yRb8-137" target="0gTN9KxVM-yiQhk3yRb8-141" edge="1">
          <mxGeometry relative="1" as="geometry">
            <mxPoint x="643.875" y="595.7399999999998" as="targetPoint" />
            <Array as="points" />
          </mxGeometry>
        </mxCell>
        <mxCell id="0gTN9KxVM-yiQhk3yRb8-155" style="edgeStyle=orthogonalEdgeStyle;rounded=0;orthogonalLoop=1;jettySize=auto;html=1;entryX=0;entryY=0.5;entryDx=0;entryDy=0;" parent="1" source="0gTN9KxVM-yiQhk3yRb8-141" target="0gTN9KxVM-yiQhk3yRb8-152" edge="1">
          <mxGeometry relative="1" as="geometry" />
        </mxCell>
        <mxCell id="0gTN9KxVM-yiQhk3yRb8-141" value="&lt;b&gt;&lt;font style=&quot;font-size: 36px;&quot;&gt;+&lt;/font&gt;&lt;/b&gt;" style="shape=trapezoid;perimeter=trapezoidPerimeter;whiteSpace=wrap;html=1;fixedSize=1;rotation=90;" parent="1" vertex="1">
          <mxGeometry x="547" y="540" width="90" height="40" as="geometry" />
        </mxCell>
        <mxCell id="0gTN9KxVM-yiQhk3yRb8-144" style="edgeStyle=orthogonalEdgeStyle;rounded=0;orthogonalLoop=1;jettySize=auto;html=1;entryX=0;entryY=0.5;entryDx=0;entryDy=0;" parent="1" target="0gTN9KxVM-yiQhk3yRb8-127" edge="1">
          <mxGeometry relative="1" as="geometry">
            <mxPoint x="80" y="678" as="sourcePoint" />
          </mxGeometry>
        </mxCell>
        <mxCell id="0gTN9KxVM-yiQhk3yRb8-143" value="&lt;font style=&quot;font-size: 25px;&quot;&gt;C&lt;/font&gt;" style="text;html=1;align=center;verticalAlign=middle;whiteSpace=wrap;rounded=0;" parent="1" vertex="1">
          <mxGeometry x="43" y="662" width="37" height="30" as="geometry" />
        </mxCell>
        <mxCell id="0gTN9KxVM-yiQhk3yRb8-188" style="edgeStyle=orthogonalEdgeStyle;rounded=0;orthogonalLoop=1;jettySize=auto;html=1;entryX=0;entryY=0.5;entryDx=0;entryDy=0;" parent="1" source="0gTN9KxVM-yiQhk3yRb8-147" target="0gTN9KxVM-yiQhk3yRb8-128" edge="1">
          <mxGeometry relative="1" as="geometry" />
        </mxCell>
        <mxCell id="0gTN9KxVM-yiQhk3yRb8-147" value="&lt;font style=&quot;font-size: 25px;&quot;&gt;D&lt;/font&gt;" style="text;html=1;align=center;verticalAlign=middle;whiteSpace=wrap;rounded=0;" parent="1" vertex="1">
          <mxGeometry x="43" y="733" width="37" height="30" as="geometry" />
        </mxCell>
        <mxCell id="0gTN9KxVM-yiQhk3yRb8-156" style="edgeStyle=orthogonalEdgeStyle;rounded=0;orthogonalLoop=1;jettySize=auto;html=1;entryX=0;entryY=0.5;entryDx=0;entryDy=0;" parent="1" target="0gTN9KxVM-yiQhk3yRb8-153" edge="1">
          <mxGeometry relative="1" as="geometry">
            <mxPoint x="365" y="679" as="sourcePoint" />
            <mxPoint x="665" y="648" as="targetPoint" />
            <Array as="points">
              <mxPoint x="365" y="680" />
              <mxPoint x="520" y="680" />
              <mxPoint x="520" y="648" />
            </Array>
          </mxGeometry>
        </mxCell>
        <mxCell id="0gTN9KxVM-yiQhk3yRb8-149" value="&lt;font style=&quot;font-size: 18px; color: rgb(204, 0, 0);&quot;&gt;C&lt;/font&gt;" style="text;html=1;align=center;verticalAlign=middle;whiteSpace=wrap;rounded=0;" parent="1" vertex="1">
          <mxGeometry x="333" y="663" width="24" height="30" as="geometry" />
        </mxCell>
        <mxCell id="0gTN9KxVM-yiQhk3yRb8-150" value="&lt;font style=&quot;font-size: 18px; color: rgb(204, 0, 0);&quot;&gt;D&lt;/font&gt;" style="text;html=1;align=center;verticalAlign=middle;whiteSpace=wrap;rounded=0;" parent="1" vertex="1">
          <mxGeometry x="333" y="733" width="24" height="30" as="geometry" />
        </mxCell>
        <mxCell id="0gTN9KxVM-yiQhk3yRb8-151" value="&lt;font style=&quot;font-size: 18px; color: rgb(0, 0, 153);&quot;&gt;X = 5A + 5B&lt;/font&gt;" style="text;html=1;align=center;verticalAlign=middle;whiteSpace=wrap;rounded=0;" parent="1" vertex="1">
          <mxGeometry x="545" y="479" width="125" height="30" as="geometry" />
        </mxCell>
        <mxCell id="0gTN9KxVM-yiQhk3yRb8-169" style="edgeStyle=orthogonalEdgeStyle;rounded=0;orthogonalLoop=1;jettySize=auto;html=1;entryX=0.25;entryY=1;entryDx=0;entryDy=0;" parent="1" source="0gTN9KxVM-yiQhk3yRb8-152" target="0gTN9KxVM-yiQhk3yRb8-165" edge="1">
          <mxGeometry relative="1" as="geometry" />
        </mxCell>
        <mxCell id="0gTN9KxVM-yiQhk3yRb8-152" value="" style="rounded=0;whiteSpace=wrap;html=1;" parent="1" vertex="1">
          <mxGeometry x="670" y="543" width="39" height="70" as="geometry" />
        </mxCell>
        <mxCell id="0gTN9KxVM-yiQhk3yRb8-160" style="edgeStyle=orthogonalEdgeStyle;rounded=0;orthogonalLoop=1;jettySize=auto;html=1;entryX=0;entryY=0.5;entryDx=0;entryDy=0;" parent="1" source="0gTN9KxVM-yiQhk3yRb8-153" target="0gTN9KxVM-yiQhk3yRb8-159" edge="1">
          <mxGeometry relative="1" as="geometry" />
        </mxCell>
        <mxCell id="0gTN9KxVM-yiQhk3yRb8-153" value="" style="rounded=0;whiteSpace=wrap;html=1;" parent="1" vertex="1">
          <mxGeometry x="670" y="613" width="39" height="70" as="geometry" />
        </mxCell>
        <mxCell id="0gTN9KxVM-yiQhk3yRb8-164" style="edgeStyle=orthogonalEdgeStyle;rounded=0;orthogonalLoop=1;jettySize=auto;html=1;entryX=0;entryY=0.5;entryDx=0;entryDy=0;" parent="1" source="0gTN9KxVM-yiQhk3yRb8-154" target="0gTN9KxVM-yiQhk3yRb8-162" edge="1">
          <mxGeometry relative="1" as="geometry" />
        </mxCell>
        <mxCell id="0gTN9KxVM-yiQhk3yRb8-154" value="" style="rounded=0;whiteSpace=wrap;html=1;" parent="1" vertex="1">
          <mxGeometry x="670" y="683" width="39" height="70" as="geometry" />
        </mxCell>
        <mxCell id="0gTN9KxVM-yiQhk3yRb8-168" style="edgeStyle=orthogonalEdgeStyle;rounded=0;orthogonalLoop=1;jettySize=auto;html=1;" parent="1" source="0gTN9KxVM-yiQhk3yRb8-159" edge="1">
          <mxGeometry relative="1" as="geometry">
            <mxPoint x="840" y="647.9999999999998" as="targetPoint" />
          </mxGeometry>
        </mxCell>
        <mxCell id="0gTN9KxVM-yiQhk3yRb8-159" value="&lt;b&gt;&lt;font style=&quot;font-size: 20px;&quot;&gt;&amp;lt;&amp;lt; by 2&lt;/font&gt;&lt;/b&gt;" style="rounded=0;whiteSpace=wrap;html=1;" parent="1" vertex="1">
          <mxGeometry x="735" y="629" width="77.5" height="38" as="geometry" />
        </mxCell>
        <mxCell id="0gTN9KxVM-yiQhk3yRb8-161" value="" style="rounded=0;whiteSpace=wrap;html=1;" parent="1" vertex="1">
          <mxGeometry x="915" y="612.5" width="39" height="70" as="geometry" />
        </mxCell>
        <mxCell id="0gTN9KxVM-yiQhk3yRb8-162" value="" style="rounded=0;whiteSpace=wrap;html=1;" parent="1" vertex="1">
          <mxGeometry x="915" y="682.5" width="39" height="70" as="geometry" />
        </mxCell>
        <mxCell id="0gTN9KxVM-yiQhk3yRb8-170" style="edgeStyle=orthogonalEdgeStyle;rounded=0;orthogonalLoop=1;jettySize=auto;html=1;entryX=0;entryY=0.5;entryDx=0;entryDy=0;" parent="1" source="0gTN9KxVM-yiQhk3yRb8-165" target="0gTN9KxVM-yiQhk3yRb8-161" edge="1">
          <mxGeometry relative="1" as="geometry" />
        </mxCell>
        <mxCell id="0gTN9KxVM-yiQhk3yRb8-165" value="&lt;span style=&quot;font-size: 36px;&quot;&gt;&lt;b&gt;I&lt;/b&gt;&lt;/span&gt;" style="shape=trapezoid;perimeter=trapezoidPerimeter;whiteSpace=wrap;html=1;fixedSize=1;rotation=90;" parent="1" vertex="1">
          <mxGeometry x="815.5" y="599.5" width="90" height="40" as="geometry" />
        </mxCell>
        <mxCell id="0gTN9KxVM-yiQhk3yRb8-171" value="&lt;font style=&quot;font-size: 18px; color: rgb(0, 0, 153);&quot;&gt;Y = (5A + 5B) - 4C&lt;/font&gt;" style="text;html=1;align=center;verticalAlign=middle;whiteSpace=wrap;rounded=0;" parent="1" vertex="1">
          <mxGeometry x="767" y="539" width="170" height="30" as="geometry" />
        </mxCell>
        <mxCell id="0gTN9KxVM-yiQhk3yRb8-172" style="edgeStyle=orthogonalEdgeStyle;rounded=0;orthogonalLoop=1;jettySize=auto;html=1;entryX=0.25;entryY=1;entryDx=0;entryDy=0;" parent="1" target="0gTN9KxVM-yiQhk3yRb8-179" edge="1">
          <mxGeometry relative="1" as="geometry">
            <mxPoint x="954" y="643.5" as="sourcePoint" />
          </mxGeometry>
        </mxCell>
        <mxCell id="0gTN9KxVM-yiQhk3yRb8-173" style="edgeStyle=orthogonalEdgeStyle;rounded=0;orthogonalLoop=1;jettySize=auto;html=1;entryX=0;entryY=0.5;entryDx=0;entryDy=0;" parent="1" target="0gTN9KxVM-yiQhk3yRb8-176" edge="1">
          <mxGeometry relative="1" as="geometry">
            <mxPoint x="955" y="720" as="sourcePoint" />
            <mxPoint x="1009" y="724.4883720930231" as="targetPoint" />
          </mxGeometry>
        </mxCell>
        <mxCell id="0gTN9KxVM-yiQhk3yRb8-174" style="edgeStyle=orthogonalEdgeStyle;rounded=0;orthogonalLoop=1;jettySize=auto;html=1;entryX=0.25;entryY=1;entryDx=0;entryDy=0;" parent="1" target="0gTN9KxVM-yiQhk3yRb8-175" edge="1">
          <mxGeometry relative="1" as="geometry">
            <mxPoint x="955" y="720" as="sourcePoint" />
            <Array as="points">
              <mxPoint x="970" y="720" />
              <mxPoint x="970" y="679" />
            </Array>
          </mxGeometry>
        </mxCell>
        <mxCell id="0gTN9KxVM-yiQhk3yRb8-175" value="&lt;b&gt;&lt;font style=&quot;font-size: 36px;&quot;&gt;+&lt;/font&gt;&lt;/b&gt;" style="shape=trapezoid;perimeter=trapezoidPerimeter;whiteSpace=wrap;html=1;fixedSize=1;rotation=90;" parent="1" vertex="1">
          <mxGeometry x="1066" y="681" width="90" height="40" as="geometry" />
        </mxCell>
        <mxCell id="0gTN9KxVM-yiQhk3yRb8-176" value="&lt;b&gt;&lt;font style=&quot;font-size: 20px;&quot;&gt;&amp;lt;&amp;lt; by 2&lt;/font&gt;&lt;/b&gt;" style="rounded=0;whiteSpace=wrap;html=1;" parent="1" vertex="1">
          <mxGeometry x="989.5" y="701" width="77.5" height="38" as="geometry" />
        </mxCell>
        <mxCell id="0gTN9KxVM-yiQhk3yRb8-177" style="edgeStyle=orthogonalEdgeStyle;rounded=0;orthogonalLoop=1;jettySize=auto;html=1;entryX=0.716;entryY=0.962;entryDx=0;entryDy=0;entryPerimeter=0;" parent="1" source="0gTN9KxVM-yiQhk3yRb8-176" target="0gTN9KxVM-yiQhk3yRb8-175" edge="1">
          <mxGeometry relative="1" as="geometry" />
        </mxCell>
        <mxCell id="0gTN9KxVM-yiQhk3yRb8-178" style="edgeStyle=orthogonalEdgeStyle;rounded=0;orthogonalLoop=1;jettySize=auto;html=1;entryX=0.678;entryY=0.95;entryDx=0;entryDy=0;entryPerimeter=0;" parent="1" source="0gTN9KxVM-yiQhk3yRb8-175" target="0gTN9KxVM-yiQhk3yRb8-179" edge="1">
          <mxGeometry relative="1" as="geometry">
            <mxPoint x="1234.875" y="701.2399999999998" as="targetPoint" />
            <Array as="points" />
          </mxGeometry>
        </mxCell>
        <mxCell id="0gTN9KxVM-yiQhk3yRb8-181" style="edgeStyle=orthogonalEdgeStyle;rounded=0;orthogonalLoop=1;jettySize=auto;html=1;" parent="1" source="0gTN9KxVM-yiQhk3yRb8-179" edge="1">
          <mxGeometry relative="1" as="geometry">
            <mxPoint x="1310" y="667" as="targetPoint" />
          </mxGeometry>
        </mxCell>
        <mxCell id="0gTN9KxVM-yiQhk3yRb8-179" value="&lt;b&gt;&lt;font style=&quot;font-size: 36px;&quot;&gt;+&lt;/font&gt;&lt;/b&gt;" style="shape=trapezoid;perimeter=trapezoidPerimeter;whiteSpace=wrap;html=1;fixedSize=1;rotation=90;" parent="1" vertex="1">
          <mxGeometry x="1154" y="647" width="90" height="40" as="geometry" />
        </mxCell>
        <mxCell id="0gTN9KxVM-yiQhk3yRb8-180" value="&lt;font style=&quot;font-size: 18px; color: rgb(0, 0, 153);&quot;&gt;E = 5A + 5B - 4C +3D&lt;/font&gt;" style="text;html=1;align=center;verticalAlign=middle;whiteSpace=wrap;rounded=0;" parent="1" vertex="1">
          <mxGeometry x="1203" y="608" width="190" height="30" as="geometry" />
        </mxCell>
        <mxCell id="0gTN9KxVM-yiQhk3yRb8-182" value="&lt;font style=&quot;font-size: 18px; color: rgb(204, 0, 0);&quot;&gt;X&lt;/font&gt;" style="text;html=1;align=center;verticalAlign=middle;whiteSpace=wrap;rounded=0;" parent="1" vertex="1">
          <mxGeometry x="678" y="569" width="24" height="30" as="geometry" />
        </mxCell>
        <mxCell id="0gTN9KxVM-yiQhk3yRb8-183" value="&lt;font style=&quot;font-size: 18px; color: rgb(204, 0, 0);&quot;&gt;C&lt;/font&gt;" style="text;html=1;align=center;verticalAlign=middle;whiteSpace=wrap;rounded=0;" parent="1" vertex="1">
          <mxGeometry x="678" y="634" width="24" height="30" as="geometry" />
        </mxCell>
        <mxCell id="0gTN9KxVM-yiQhk3yRb8-185" value="&lt;font style=&quot;font-size: 18px; color: rgb(204, 0, 0);&quot;&gt;D&lt;/font&gt;" style="text;html=1;align=center;verticalAlign=middle;whiteSpace=wrap;rounded=0;" parent="1" vertex="1">
          <mxGeometry x="677.5" y="709" width="24" height="30" as="geometry" />
        </mxCell>
        <mxCell id="0gTN9KxVM-yiQhk3yRb8-186" value="&lt;font style=&quot;font-size: 18px; color: rgb(204, 0, 0);&quot;&gt;D&lt;/font&gt;" style="text;html=1;align=center;verticalAlign=middle;whiteSpace=wrap;rounded=0;" parent="1" vertex="1">
          <mxGeometry x="923" y="705" width="24" height="30" as="geometry" />
        </mxCell>
        <mxCell id="0gTN9KxVM-yiQhk3yRb8-187" value="&lt;font style=&quot;font-size: 18px; color: rgb(204, 0, 0);&quot;&gt;C&lt;/font&gt;" style="text;html=1;align=center;verticalAlign=middle;whiteSpace=wrap;rounded=0;" parent="1" vertex="1">
          <mxGeometry x="923" y="633" width="24" height="30" as="geometry" />
        </mxCell>
        <UserObject label="&lt;img src=&quot;https://electrosofts.com/verilog/mealy.gif&quot; alt=&quot;FSM design using Verilog :: Electrosofts.com&quot;&gt;" id="R9ZdVDWzcC7xUmS6zR7n-7">
          <mxCell style="text;whiteSpace=wrap;html=1;shadow=0;" vertex="1" parent="1">
            <mxGeometry x="116.25" y="1060" width="13.25" as="geometry" />
          </mxCell>
        </UserObject>
        <mxCell id="R9ZdVDWzcC7xUmS6zR7n-8" value="&lt;b&gt;COUNTER&lt;/b&gt;" style="rounded=0;whiteSpace=wrap;html=1;fillColor=#FFF2CC;" vertex="1" parent="1">
          <mxGeometry x="536" y="1637" width="120" height="60" as="geometry" />
        </mxCell>
        <mxCell id="R9ZdVDWzcC7xUmS6zR7n-9" value="&lt;b&gt;SWITCH A&lt;/b&gt;" style="rounded=0;whiteSpace=wrap;html=1;fillColor=#E5CCFF;" vertex="1" parent="1">
          <mxGeometry x="160" y="1410" width="120" height="60" as="geometry" />
        </mxCell>
        <mxCell id="R9ZdVDWzcC7xUmS6zR7n-10" value="&lt;b&gt;SWITCH B&lt;/b&gt;" style="rounded=0;whiteSpace=wrap;html=1;fillColor=#E5CCFF;" vertex="1" parent="1">
          <mxGeometry x="160" y="1480" width="120" height="60" as="geometry" />
        </mxCell>
        <mxCell id="R9ZdVDWzcC7xUmS6zR7n-11" value="&lt;b&gt;SWITCH C&lt;/b&gt;" style="rounded=0;whiteSpace=wrap;html=1;fillColor=#E5CCFF;" vertex="1" parent="1">
          <mxGeometry x="160" y="1550" width="120" height="60" as="geometry" />
        </mxCell>
        <mxCell id="R9ZdVDWzcC7xUmS6zR7n-12" value="&lt;b&gt;SWITCH D&lt;/b&gt;" style="rounded=0;whiteSpace=wrap;html=1;fillColor=#E5CCFF;" vertex="1" parent="1">
          <mxGeometry x="160" y="1620" width="120" height="60" as="geometry" />
        </mxCell>
        <mxCell id="R9ZdVDWzcC7xUmS6zR7n-32" style="edgeStyle=orthogonalEdgeStyle;rounded=0;orthogonalLoop=1;jettySize=auto;html=1;entryX=0;entryY=0.5;entryDx=0;entryDy=0;" edge="1" parent="1" source="R9ZdVDWzcC7xUmS6zR7n-21" target="R9ZdVDWzcC7xUmS6zR7n-24">
          <mxGeometry relative="1" as="geometry" />
        </mxCell>
        <mxCell id="R9ZdVDWzcC7xUmS6zR7n-21" value="" style="verticalLabelPosition=bottom;verticalAlign=top;html=1;shape=mxgraph.basic.layered_rect;dx=10;outlineConnect=0;whiteSpace=wrap;fillColor=#FFFF66;" vertex="1" parent="1">
          <mxGeometry x="398.5" y="1440" width="235" height="110" as="geometry" />
        </mxCell>
        <mxCell id="R9ZdVDWzcC7xUmS6zR7n-31" style="edgeStyle=orthogonalEdgeStyle;rounded=0;orthogonalLoop=1;jettySize=auto;html=1;entryX=0;entryY=0.5;entryDx=0;entryDy=0;" edge="1" parent="1" source="R9ZdVDWzcC7xUmS6zR7n-22" target="R9ZdVDWzcC7xUmS6zR7n-8">
          <mxGeometry relative="1" as="geometry" />
        </mxCell>
        <mxCell id="R9ZdVDWzcC7xUmS6zR7n-22" value="&lt;b&gt;DRIVING LOGIC&lt;/b&gt;" style="rounded=0;whiteSpace=wrap;html=1;fillColor=#FFF2CC;" vertex="1" parent="1">
          <mxGeometry x="374" y="1637" width="110" height="60" as="geometry" />
        </mxCell>
        <mxCell id="R9ZdVDWzcC7xUmS6zR7n-33" style="edgeStyle=orthogonalEdgeStyle;rounded=0;orthogonalLoop=1;jettySize=auto;html=1;entryX=0;entryY=0.5;entryDx=0;entryDy=0;" edge="1" parent="1" source="R9ZdVDWzcC7xUmS6zR7n-24" target="R9ZdVDWzcC7xUmS6zR7n-27">
          <mxGeometry relative="1" as="geometry" />
        </mxCell>
        <mxCell id="R9ZdVDWzcC7xUmS6zR7n-24" value="&lt;b&gt;STATE REGISTER&lt;/b&gt;" style="rounded=0;whiteSpace=wrap;html=1;fillColor=#D4E1F5;" vertex="1" parent="1">
          <mxGeometry x="721.25" y="1435" width="78.75" height="120" as="geometry" />
        </mxCell>
        <mxCell id="R9ZdVDWzcC7xUmS6zR7n-40" style="edgeStyle=orthogonalEdgeStyle;rounded=0;orthogonalLoop=1;jettySize=auto;html=1;entryX=0.5;entryY=0;entryDx=0;entryDy=0;" edge="1" parent="1" source="R9ZdVDWzcC7xUmS6zR7n-27" target="R9ZdVDWzcC7xUmS6zR7n-39">
          <mxGeometry relative="1" as="geometry" />
        </mxCell>
        <mxCell id="R9ZdVDWzcC7xUmS6zR7n-27" value="&lt;b&gt;&lt;font style=&quot;font-size: 14px;&quot;&gt;OUTPUT LOGIC&lt;/font&gt;&lt;/b&gt;" style="rounded=0;whiteSpace=wrap;html=1;fillColor=#FF8000;" vertex="1" parent="1">
          <mxGeometry x="850" y="1445" width="130" height="100" as="geometry" />
        </mxCell>
        <mxCell id="R9ZdVDWzcC7xUmS6zR7n-28" value="&lt;b&gt;&lt;font style=&quot;font-size: 14px;&quot;&gt;INPUTS&lt;/font&gt;&lt;/b&gt;" style="text;html=1;align=center;verticalAlign=middle;whiteSpace=wrap;rounded=0;" vertex="1" parent="1">
          <mxGeometry x="190" y="1690" width="60" height="30" as="geometry" />
        </mxCell>
        <mxCell id="R9ZdVDWzcC7xUmS6zR7n-35" style="edgeStyle=orthogonalEdgeStyle;rounded=0;orthogonalLoop=1;jettySize=auto;html=1;entryX=0;entryY=0;entryDx=0;entryDy=50;entryPerimeter=0;" edge="1" parent="1" source="R9ZdVDWzcC7xUmS6zR7n-17" target="R9ZdVDWzcC7xUmS6zR7n-21">
          <mxGeometry relative="1" as="geometry">
            <Array as="points">
              <mxPoint x="360" y="1565" />
              <mxPoint x="360" y="1490" />
            </Array>
          </mxGeometry>
        </mxCell>
        <mxCell id="R9ZdVDWzcC7xUmS6zR7n-37" value="&lt;b&gt;&lt;font style=&quot;font-size: 14px;&quot;&gt;NEXT STATE LOGIC&lt;/font&gt;&lt;/b&gt;" style="text;html=1;align=center;verticalAlign=middle;whiteSpace=wrap;rounded=0;" vertex="1" parent="1">
          <mxGeometry x="452" y="1480" width="113" height="30" as="geometry" />
        </mxCell>
        <mxCell id="R9ZdVDWzcC7xUmS6zR7n-38" style="edgeStyle=orthogonalEdgeStyle;rounded=0;orthogonalLoop=1;jettySize=auto;html=1;entryX=0;entryY=0;entryDx=178.75;entryDy=110;entryPerimeter=0;" edge="1" parent="1">
          <mxGeometry relative="1" as="geometry">
            <mxPoint x="825" y="1500" as="sourcePoint" />
            <mxPoint x="572.25" y="1550" as="targetPoint" />
            <Array as="points">
              <mxPoint x="825" y="1495" />
              <mxPoint x="825" y="1600" />
              <mxPoint x="572" y="1600" />
            </Array>
          </mxGeometry>
        </mxCell>
        <mxCell id="R9ZdVDWzcC7xUmS6zR7n-39" value="" style="shape=sumEllipse;perimeter=ellipsePerimeter;whiteSpace=wrap;html=1;backgroundOutline=1;fillColor=#99FF33;" vertex="1" parent="1">
          <mxGeometry x="875" y="1607" width="80" height="80" as="geometry" />
        </mxCell>
        <mxCell id="R9ZdVDWzcC7xUmS6zR7n-41" value="&lt;b&gt;&lt;font style=&quot;font-size: 14px;&quot;&gt;A&lt;/font&gt;&lt;/b&gt;" style="text;html=1;align=center;verticalAlign=middle;whiteSpace=wrap;rounded=0;" vertex="1" parent="1">
          <mxGeometry x="901.25" y="1609" width="27.5" height="30" as="geometry" />
        </mxCell>
        <mxCell id="R9ZdVDWzcC7xUmS6zR7n-42" value="&lt;b&gt;&lt;font style=&quot;font-size: 14px;&quot;&gt;B&lt;/font&gt;&lt;/b&gt;" style="text;html=1;align=center;verticalAlign=middle;whiteSpace=wrap;rounded=0;" vertex="1" parent="1">
          <mxGeometry x="923" y="1630" width="27.5" height="30" as="geometry" />
        </mxCell>
        <mxCell id="R9ZdVDWzcC7xUmS6zR7n-43" value="&lt;b&gt;&lt;font style=&quot;font-size: 14px;&quot;&gt;C&lt;/font&gt;&lt;/b&gt;&lt;span style=&quot;color: rgba(0, 0, 0, 0); font-family: monospace; font-size: 0px; text-align: start; text-wrap-mode: nowrap;&quot;&gt;%3CmxGraphModel%3E%3Croot%3E%3CmxCell%20id%3D%220%22%2F%3E%3CmxCell%20id%3D%221%22%20parent%3D%220%22%2F%3E%3CmxCell%20id%3D%222%22%20value%3D%22%26lt%3Bb%26gt%3B%26lt%3Bfont%20style%3D%26quot%3Bfont-size%3A%2014px%3B%26quot%3B%26gt%3BA%26lt%3B%2Ffont%26gt%3B%26lt%3B%2Fb%26gt%3B%22%20style%3D%22text%3Bhtml%3D1%3Balign%3Dcenter%3BverticalAlign%3Dmiddle%3BwhiteSpace%3Dwrap%3Brounded%3D0%3B%22%20vertex%3D%221%22%20parent%3D%221%22%3E%3CmxGeometry%20x%3D%22901.25%22%20y%3D%221629%22%20width%3D%2227.5%22%20height%3D%2230%22%20as%3D%22geometry%22%2F%3E%3C%2FmxCell%3E%3C%2Froot%3E%3C%2FmxGraphModel%3E&lt;/span&gt;" style="text;html=1;align=center;verticalAlign=middle;whiteSpace=wrap;rounded=0;" vertex="1" parent="1">
          <mxGeometry x="901.25" y="1657" width="27.5" height="30" as="geometry" />
        </mxCell>
        <mxCell id="R9ZdVDWzcC7xUmS6zR7n-44" value="&lt;b&gt;&lt;font style=&quot;font-size: 14px;&quot;&gt;D&lt;/font&gt;&lt;/b&gt;" style="text;html=1;align=center;verticalAlign=middle;whiteSpace=wrap;rounded=0;" vertex="1" parent="1">
          <mxGeometry x="878" y="1632" width="27.5" height="30" as="geometry" />
        </mxCell>
        <mxCell id="R9ZdVDWzcC7xUmS6zR7n-45" value="&lt;b&gt;&lt;font style=&quot;font-size: 14px;&quot;&gt;OUTPUT LIGHTS&lt;/font&gt;&lt;/b&gt;" style="text;html=1;align=center;verticalAlign=middle;whiteSpace=wrap;rounded=0;" vertex="1" parent="1">
          <mxGeometry x="843" y="1690" width="150" height="30" as="geometry" />
        </mxCell>
        <mxCell id="R9ZdVDWzcC7xUmS6zR7n-48" style="edgeStyle=orthogonalEdgeStyle;rounded=0;orthogonalLoop=1;jettySize=auto;html=1;entryX=0.5;entryY=0;entryDx=0;entryDy=0;curved=1;" edge="1" parent="1" source="R9ZdVDWzcC7xUmS6zR7n-46" target="R9ZdVDWzcC7xUmS6zR7n-47">
          <mxGeometry relative="1" as="geometry" />
        </mxCell>
        <mxCell id="R9ZdVDWzcC7xUmS6zR7n-56" style="edgeStyle=orthogonalEdgeStyle;rounded=0;orthogonalLoop=1;jettySize=auto;html=1;exitX=0.315;exitY=0.982;exitDx=0;exitDy=0;entryX=0.318;entryY=0.038;entryDx=0;entryDy=0;entryPerimeter=0;exitPerimeter=0;" edge="1" parent="1">
          <mxGeometry relative="1" as="geometry">
            <mxPoint x="1291.4" y="1509.1500000000003" as="sourcePoint" />
            <mxPoint x="1291.7" y="1604.7500000000002" as="targetPoint" />
          </mxGeometry>
        </mxCell>
        <mxCell id="R9ZdVDWzcC7xUmS6zR7n-64" style="edgeStyle=orthogonalEdgeStyle;curved=1;rounded=0;orthogonalLoop=1;jettySize=auto;html=1;exitX=0;exitY=1;exitDx=0;exitDy=0;entryX=1;entryY=0;entryDx=0;entryDy=0;" edge="1" parent="1" source="R9ZdVDWzcC7xUmS6zR7n-46" target="R9ZdVDWzcC7xUmS6zR7n-51">
          <mxGeometry relative="1" as="geometry" />
        </mxCell>
        <mxCell id="R9ZdVDWzcC7xUmS6zR7n-46" value="&lt;b&gt;STATE A&lt;/b&gt;&lt;div&gt;A = GREEN&amp;nbsp;&lt;/div&gt;&lt;div&gt;Rest are RED&lt;/div&gt;" style="ellipse;whiteSpace=wrap;html=1;aspect=fixed;fillColor=#dae8fc;strokeColor=#6c8ebf;" vertex="1" parent="1">
          <mxGeometry x="1259.9" y="1411.95" width="100" height="100" as="geometry" />
        </mxCell>
        <mxCell id="R9ZdVDWzcC7xUmS6zR7n-55" style="edgeStyle=orthogonalEdgeStyle;rounded=0;orthogonalLoop=1;jettySize=auto;html=1;exitX=0;exitY=1;exitDx=0;exitDy=0;entryX=0.962;entryY=0.685;entryDx=0;entryDy=0;entryPerimeter=0;" edge="1" parent="1" target="R9ZdVDWzcC7xUmS6zR7n-51">
          <mxGeometry relative="1" as="geometry">
            <mxPoint x="1455.5446609406754" y="1570.3053390593243" as="sourcePoint" />
            <mxPoint x="1165.255339059329" y="1570.3053390593288" as="targetPoint" />
          </mxGeometry>
        </mxCell>
        <mxCell id="R9ZdVDWzcC7xUmS6zR7n-66" style="edgeStyle=orthogonalEdgeStyle;curved=1;rounded=0;orthogonalLoop=1;jettySize=auto;html=1;exitX=0;exitY=0;exitDx=0;exitDy=0;entryX=1;entryY=1;entryDx=0;entryDy=0;" edge="1" parent="1" source="R9ZdVDWzcC7xUmS6zR7n-47" target="R9ZdVDWzcC7xUmS6zR7n-46">
          <mxGeometry relative="1" as="geometry" />
        </mxCell>
        <mxCell id="R9ZdVDWzcC7xUmS6zR7n-47" value="&lt;b&gt;STATE B&lt;/b&gt;&lt;div&gt;B = GREEN&amp;nbsp;&lt;/div&gt;&lt;div&gt;Rest are RED&lt;/div&gt;" style="ellipse;whiteSpace=wrap;html=1;aspect=fixed;fillColor=#fff2cc;strokeColor=#d6b656;" vertex="1" parent="1">
          <mxGeometry x="1440.9" y="1501.95" width="100" height="100" as="geometry" />
        </mxCell>
        <mxCell id="R9ZdVDWzcC7xUmS6zR7n-52" style="edgeStyle=orthogonalEdgeStyle;rounded=0;orthogonalLoop=1;jettySize=auto;html=1;entryX=0.5;entryY=1;entryDx=0;entryDy=0;curved=1;" edge="1" parent="1" source="R9ZdVDWzcC7xUmS6zR7n-49" target="R9ZdVDWzcC7xUmS6zR7n-51">
          <mxGeometry relative="1" as="geometry" />
        </mxCell>
        <mxCell id="R9ZdVDWzcC7xUmS6zR7n-57" style="edgeStyle=orthogonalEdgeStyle;rounded=0;orthogonalLoop=1;jettySize=auto;html=1;exitX=0.681;exitY=0.031;exitDx=0;exitDy=0;entryX=0.677;entryY=0.968;entryDx=0;entryDy=0;entryPerimeter=0;exitPerimeter=0;" edge="1" parent="1" source="R9ZdVDWzcC7xUmS6zR7n-49" target="R9ZdVDWzcC7xUmS6zR7n-46">
          <mxGeometry relative="1" as="geometry">
            <mxPoint x="1328.2553390593268" y="1616.5946609406735" as="sourcePoint" />
            <mxPoint x="1328.2553390593268" y="1497.305339059327" as="targetPoint" />
          </mxGeometry>
        </mxCell>
        <mxCell id="R9ZdVDWzcC7xUmS6zR7n-68" style="edgeStyle=orthogonalEdgeStyle;curved=1;rounded=0;orthogonalLoop=1;jettySize=auto;html=1;exitX=1;exitY=0;exitDx=0;exitDy=0;entryX=0;entryY=1;entryDx=0;entryDy=0;" edge="1" parent="1" source="R9ZdVDWzcC7xUmS6zR7n-49" target="R9ZdVDWzcC7xUmS6zR7n-47">
          <mxGeometry relative="1" as="geometry" />
        </mxCell>
        <mxCell id="R9ZdVDWzcC7xUmS6zR7n-49" value="&lt;b&gt;STATE C&lt;/b&gt;&lt;div&gt;B = GREEN&amp;nbsp;&lt;/div&gt;&lt;div&gt;Rest are RED&lt;/div&gt;" style="ellipse;whiteSpace=wrap;html=1;aspect=fixed;fillColor=#d5e8d4;strokeColor=#82b366;" vertex="1" parent="1">
          <mxGeometry x="1259.9" y="1601.95" width="100" height="100" as="geometry" />
        </mxCell>
        <mxCell id="R9ZdVDWzcC7xUmS6zR7n-50" style="edgeStyle=orthogonalEdgeStyle;rounded=0;orthogonalLoop=1;jettySize=auto;html=1;entryX=0.948;entryY=0.528;entryDx=0;entryDy=0;entryPerimeter=0;exitX=0.5;exitY=1;exitDx=0;exitDy=0;curved=1;" edge="1" parent="1" source="R9ZdVDWzcC7xUmS6zR7n-47" target="R9ZdVDWzcC7xUmS6zR7n-49">
          <mxGeometry relative="1" as="geometry" />
        </mxCell>
        <mxCell id="R9ZdVDWzcC7xUmS6zR7n-53" style="edgeStyle=orthogonalEdgeStyle;rounded=0;orthogonalLoop=1;jettySize=auto;html=1;entryX=0;entryY=0.5;entryDx=0;entryDy=0;exitX=0.5;exitY=0;exitDx=0;exitDy=0;curved=1;" edge="1" parent="1" source="R9ZdVDWzcC7xUmS6zR7n-51" target="R9ZdVDWzcC7xUmS6zR7n-46">
          <mxGeometry relative="1" as="geometry" />
        </mxCell>
        <mxCell id="R9ZdVDWzcC7xUmS6zR7n-54" style="edgeStyle=orthogonalEdgeStyle;rounded=0;orthogonalLoop=1;jettySize=auto;html=1;entryX=0;entryY=0.5;entryDx=0;entryDy=0;" edge="1" parent="1" source="R9ZdVDWzcC7xUmS6zR7n-51" target="R9ZdVDWzcC7xUmS6zR7n-47">
          <mxGeometry relative="1" as="geometry" />
        </mxCell>
        <mxCell id="R9ZdVDWzcC7xUmS6zR7n-67" style="edgeStyle=orthogonalEdgeStyle;curved=1;rounded=0;orthogonalLoop=1;jettySize=auto;html=1;exitX=1;exitY=1;exitDx=0;exitDy=0;entryX=0;entryY=0;entryDx=0;entryDy=0;" edge="1" parent="1" source="R9ZdVDWzcC7xUmS6zR7n-51" target="R9ZdVDWzcC7xUmS6zR7n-49">
          <mxGeometry relative="1" as="geometry" />
        </mxCell>
        <mxCell id="R9ZdVDWzcC7xUmS6zR7n-51" value="&lt;b&gt;STATE C&lt;/b&gt;&lt;div&gt;B = GREEN&amp;nbsp;&lt;/div&gt;&lt;div&gt;Rest are RED&lt;/div&gt;" style="ellipse;whiteSpace=wrap;html=1;aspect=fixed;fillColor=#f8cecc;strokeColor=#b85450;" vertex="1" parent="1">
          <mxGeometry x="1079.9" y="1501.95" width="100" height="100" as="geometry" />
        </mxCell>
        <mxCell id="R9ZdVDWzcC7xUmS6zR7n-70" style="edgeStyle=orthogonalEdgeStyle;curved=1;rounded=0;orthogonalLoop=1;jettySize=auto;html=1;entryX=0.65;entryY=0;entryDx=0;entryDy=0;entryPerimeter=0;" edge="1" parent="1">
          <mxGeometry relative="1" as="geometry">
            <mxPoint x="1292.9" y="1414.95" as="sourcePoint" />
            <mxPoint x="1319.9" y="1413.95" as="targetPoint" />
            <Array as="points">
              <mxPoint x="1281.9" y="1414.95" />
              <mxPoint x="1281.9" y="1380.95" />
              <mxPoint x="1319.9" y="1380.95" />
            </Array>
          </mxGeometry>
        </mxCell>
        <mxCell id="R9ZdVDWzcC7xUmS6zR7n-72" style="edgeStyle=orthogonalEdgeStyle;curved=1;rounded=0;orthogonalLoop=1;jettySize=auto;html=1;exitX=0;exitY=1;exitDx=0;exitDy=0;entryX=0;entryY=0.5;entryDx=0;entryDy=0;" edge="1" parent="1" source="R9ZdVDWzcC7xUmS6zR7n-51" target="R9ZdVDWzcC7xUmS6zR7n-51">
          <mxGeometry relative="1" as="geometry">
            <Array as="points">
              <mxPoint x="1059.9" y="1586.95" />
              <mxPoint x="1059.9" y="1551.95" />
            </Array>
          </mxGeometry>
        </mxCell>
        <mxCell id="R9ZdVDWzcC7xUmS6zR7n-74" style="edgeStyle=orthogonalEdgeStyle;curved=1;rounded=0;orthogonalLoop=1;jettySize=auto;html=1;exitX=1;exitY=1;exitDx=0;exitDy=0;entryX=1;entryY=0.5;entryDx=0;entryDy=0;" edge="1" parent="1" source="R9ZdVDWzcC7xUmS6zR7n-47" target="R9ZdVDWzcC7xUmS6zR7n-47">
          <mxGeometry relative="1" as="geometry">
            <Array as="points">
              <mxPoint x="1559.9" y="1586.95" />
              <mxPoint x="1559.9" y="1551.95" />
            </Array>
          </mxGeometry>
        </mxCell>
      </root>
    </mxGraphModel>
  </diagram>
</mxfile>
